<?xml version="1.0" encoding="utf-8"?>
<!-- Generator: Adobe Illustrator 26.2.1, SVG Export Plug-In . SVG Version: 6.00 Build 0)  -->
<svg version="1.1" id="Calque_1" xmlns="http://www.w3.org/2000/svg" xmlns:xlink="http://www.w3.org/1999/xlink" x="0px" y="0px"
	 viewBox="0 0 158.6 154.7" style="enable-background:new 0 0 158.6 154.7;" xml:space="preserve">
<style type="text/css">
	.st0{
		fill:white;
		stroke:black;
		stroke-width:3;
		stroke-miterlimit:10;
	}
</style>
<path class="st0" d="M151.6,58.7H131c-0.6-1.5-1.2-3-1.8-4.4l14.5-14.5c0.8-0.8,0.8-2,0-2.7l-23.8-23.8c-0.8-0.8-2-0.8-2.7,0
	l-14.5,14.5c-1.5-0.7-2.9-1.3-4.5-1.9V5.3c0-1.1-0.9-1.9-1.9-1.9H62.6c-1.1,0-1.9,0.9-1.9,1.9v20.6c-1.5,0.6-3,1.2-4.5,1.9
	L41.6,13.2c-0.8-0.8-2-0.8-2.7,0L15.1,37c-0.8,0.8-0.8,2,0,2.7l14.5,14.5c-0.7,1.4-1.3,2.9-1.8,4.4H7.2c-1.1,0-1.9,0.9-1.9,1.9v33.7
	c0,1.1,0.9,1.9,1.9,1.9h20.6c0.5,1.5,1.2,3,1.8,4.4l-14.5,14.5c-0.8,0.8-0.8,2,0,2.7l23.8,23.8c0.8,0.8,2,0.8,2.7,0l14.5-14.5
	c1.5,0.7,2.9,1.3,4.5,1.8v20.6c0,1.1,0.9,1.9,1.9,1.9h33.7c1.1,0,1.9-0.9,1.9-1.9v-20.6c1.5-0.5,3-1.2,4.5-1.8l14.5,14.5
	c0.8,0.8,2,0.8,2.7,0l23.8-23.8c0.8-0.8,0.8-2,0-2.7l-14.5-14.5c0.7-1.4,1.3-2.9,1.8-4.4h20.6c1.1,0,1.9-0.9,1.9-1.9V60.6
	C153.5,59.6,152.6,58.7,151.6,58.7z M79.4,102.7c-13.9,0-25.2-11.3-25.2-25.2s11.3-25.2,25.2-25.2c13.9,0,25.2,11.3,25.2,25.2
	S93.3,102.7,79.4,102.7z"/>
</svg>
